<svg width="28" height="28" viewBox="0 0 28 28" fill="none" xmlns="http://www.w3.org/2000/svg">
<path fill-rule="evenodd" clip-rule="evenodd" d="M13.9999 8.45831C14.4832 8.45831 14.8749 8.85006 14.8749 9.33331V13.125H18.6666C19.1498 13.125 19.5416 13.5167 19.5416 14C19.5416 14.4832 19.1498 14.875 18.6666 14.875H14.8749V18.6666C14.8749 19.1499 14.4832 19.5416 13.9999 19.5416C13.5167 19.5416 13.1249 19.1499 13.1249 18.6666V14.875H9.33325C8.85 14.875 8.45825 14.4832 8.45825 14C8.45825 13.5167 8.85 13.125 9.33325 13.125H13.1249V9.33331C13.1249 8.85006 13.5167 8.45831 13.9999 8.45831Z" fill="white"/>
</svg>
